HIERARCHY
ROOT Hips
{
    OFFSET   0.000000   0.000000   0.000000
    CHANNELS 6 Xposition Yposition Zposition Zrotation Xrotation Yrotation
    JOINT Chest
    {
        OFFSET   0.000000   8.007240   0.000000
        CHANNELS 3 Zrotation Xrotation Yrotation
        JOINT Chest2
        {
            OFFSET   0.000000  22.077100   0.000000
            CHANNELS 3 Zrotation Xrotation Yrotation
            JOINT Neck
            {
                OFFSET   0.000000  23.254800   0.000000
                CHANNELS 3 Zrotation Xrotation Yrotation
                JOINT Head
                {
                    OFFSET   0.000000  14.370000   1.956600
                    CHANNELS 3 Zrotation Xrotation Yrotation
                    End Site
                    {
                        OFFSET   0.000000  19.566000   0.000000
                    }
                }
            }
            JOINT LeftCollar
            {
                OFFSET   3.911900  19.017000  -0.467064
                CHANNELS 3 Zrotation Xrotation Yrotation
                JOINT LeftShoulder
                {
                    OFFSET  10.383700   0.000000   0.000000
                    CHANNELS 3 Zrotation Xrotation Yrotation
                    JOINT LeftElbow
                    {
                        OFFSET  26.662100   0.001476   0.000517
                        CHANNELS 3 Zrotation Xrotation Yrotation
                        JOINT LeftWrist
                        {
                            OFFSET  28.869000  -0.000025  -0.000106
                            CHANNELS 3 Zrotation Xrotation Yrotation
                            JOINT LeftFinger0
                            {
                                OFFSET   2.044660  -2.323460   3.252850
                                CHANNELS 3 Zrotation Xrotation Yrotation
                                JOINT LeftFinger01
                                {
                                    OFFSET   3.088130   0.000000   0.000000
                                    CHANNELS 3 Zrotation Xrotation Yrotation
                                    JOINT LeftFinger02
                                    {
                                        OFFSET   2.639460   0.000000   0.000000
                                        CHANNELS 3 Zrotation Xrotation Yrotation
                                        End Site
                                        {
                                            OFFSET   2.582190   0.000000   0.000000
                                        }
                                    }
                                }
                            }
                            JOINT LeftFinger1
                            {
                                OFFSET   8.364480   0.000000   3.252850
                                CHANNELS 3 Zrotation Xrotation Yrotation
                                JOINT LeftFinger11
                                {
                                    OFFSET   4.646930   0.000000   0.000000
                                    CHANNELS 3 Zrotation Xrotation Yrotation
                                    JOINT LeftFinger12
                                    {
                                        OFFSET   2.323460   0.000000   0.000000
                                        CHANNELS 3 Zrotation Xrotation Yrotation
                                        End Site
                                        {
                                            OFFSET   2.273050   0.000000   0.000000
                                        }
                                    }
                                }
                            }
                            JOINT LeftFinger2
                            {
                                OFFSET   8.364490   0.000015   1.078090
                                CHANNELS 3 Zrotation Xrotation Yrotation
                                JOINT LeftFinger21
                                {
                                    OFFSET   5.111620   0.000000   0.000000
                                    CHANNELS 3 Zrotation Xrotation Yrotation
                                    JOINT LeftFinger22
                                    {
                                        OFFSET   2.788160   0.000016   0.000000
                                        CHANNELS 3 Zrotation Xrotation Yrotation
                                        End Site
                                        {
                                            OFFSET   2.727660   0.000000   0.000000
                                        }
                                    }
                                }
                            }
                            JOINT LeftFinger3
                            {
                                OFFSET   7.899780   0.000017  -1.078090
                                CHANNELS 3 Zrotation Xrotation Yrotation
                                JOINT LeftFinger31
                                {
                                    OFFSET   4.646930   0.000000   0.000000
                                    CHANNELS 3 Zrotation Xrotation Yrotation
                                    JOINT LeftFinger32
                                    {
                                        OFFSET   2.323470   0.000000   0.000000
                                        CHANNELS 3 Zrotation Xrotation Yrotation
                                        End Site
                                        {
                                            OFFSET   2.273050   0.000000   0.000000
                                        }
                                    }
                                }
                            }
                            JOINT LeftFinger4
                            {
                                OFFSET   7.435090   0.000000  -3.252850
                                CHANNELS 3 Zrotation Xrotation Yrotation
                                JOINT LeftFinger41
                                {
                                    OFFSET   3.717550   0.000000   0.000000
                                    CHANNELS 3 Zrotation Xrotation Yrotation
                                    JOINT LeftFinger42
                                    {
                                        OFFSET   1.858770   0.000000   0.000000
                                        CHANNELS 3 Zrotation Xrotation Yrotation
                                        End Site
                                        {
                                            OFFSET   1.818440   0.000000   0.000000
                                        }
                                    }
                                }
                            }
                        }
                    }
                }
            }
            JOINT RightCollar
            {
                OFFSET  -3.911900  19.017000  -0.467063
                CHANNELS 3 Zrotation Xrotation Yrotation
                JOINT RightShoulder
                {
                    OFFSET -10.383700   0.000019   0.000000
                    CHANNELS 3 Zrotation Xrotation Yrotation
                    JOINT RightElbow
                    {
                        OFFSET -26.662100   0.001175   0.000102
                        CHANNELS 3 Zrotation Xrotation Yrotation
                        JOINT RightWrist
                        {
                            OFFSET -28.869000   0.000016  -0.000079
                            CHANNELS 3 Zrotation Xrotation Yrotation
                            JOINT RightFinger0
                            {
                                OFFSET  -2.044660  -2.323490   3.252850
                                CHANNELS 3 Zrotation Xrotation Yrotation
                                JOINT RightFinger01
                                {
                                    OFFSET  -3.088140   0.000000   0.000000
                                    CHANNELS 3 Zrotation Xrotation Yrotation
                                    JOINT RightFinger02
                                    {
                                        OFFSET  -2.639460   0.000000   0.000000
                                        CHANNELS 3 Zrotation Xrotation Yrotation
                                        End Site
                                        {
                                            OFFSET  -2.582190   0.000000   0.000000
                                        }
                                    }
                                }
                            }
                            JOINT RightFinger1
                            {
                                OFFSET  -8.364480   0.000000   3.252850
                                CHANNELS 3 Zrotation Xrotation Yrotation
                                JOINT RightFinger11
                                {
                                    OFFSET  -4.646930   0.000000   0.000000
                                    CHANNELS 3 Zrotation Xrotation Yrotation
                                    JOINT RightFinger12
                                    {
                                        OFFSET  -2.323470   0.000000   0.000000
                                        CHANNELS 3 Zrotation Xrotation Yrotation
                                        End Site
                                        {
                                            OFFSET  -2.273050   0.000000   0.000000
                                        }
                                    }
                                }
                            }
                            JOINT RightFinger2
                            {
                                OFFSET  -8.364480   0.000000   1.078090
                                CHANNELS 3 Zrotation Xrotation Yrotation
                                JOINT RightFinger21
                                {
                                    OFFSET  -5.111620   0.000000   0.000000
                                    CHANNELS 3 Zrotation Xrotation Yrotation
                                    JOINT RightFinger22
                                    {
                                        OFFSET  -2.788160   0.000000   0.000000
                                        CHANNELS 3 Zrotation Xrotation Yrotation
                                        End Site
                                        {
                                            OFFSET  -2.727660   0.000000   0.000000
                                        }
                                    }
                                }
                            }
                            JOINT RightFinger3
                            {
                                OFFSET  -7.899780   0.000000  -1.078090
                                CHANNELS 3 Zrotation Xrotation Yrotation
                                JOINT RightFinger31
                                {
                                    OFFSET  -4.646930   0.000000   0.000000
                                    CHANNELS 3 Zrotation Xrotation Yrotation
                                    JOINT RightFinger32
                                    {
                                        OFFSET  -2.323470   0.000000   0.000000
                                        CHANNELS 3 Zrotation Xrotation Yrotation
                                        End Site
                                        {
                                            OFFSET  -2.273050   0.000000   0.000000
                                        }
                                    }
                                }
                            }
                            JOINT RightFinger4
                            {
                                OFFSET  -7.435090   0.000000  -3.252850
                                CHANNELS 3 Zrotation Xrotation Yrotation
                                JOINT RightFinger41
                                {
                                    OFFSET  -3.717550   0.000000   0.000000
                                    CHANNELS 3 Zrotation Xrotation Yrotation
                                    JOINT RightFinger42
                                    {
                                        OFFSET  -1.858770   0.000000   0.000000
                                        CHANNELS 3 Zrotation Xrotation Yrotation
                                        End Site
                                        {
                                            OFFSET  -1.818440   0.000000   0.000000
                                        }
                                    }
                                }
                            }
                        }
                    }
                }
            }
        }
    }
    JOINT LeftHip
    {
        OFFSET   9.783040   0.000000   0.000000
        CHANNELS 3 Zrotation Xrotation Yrotation
        JOINT LeftKnee
        {
            OFFSET   0.000032 -41.789100  -0.002222
            CHANNELS 3 Zrotation Xrotation Yrotation
            JOINT LeftAnkle
            {
                OFFSET   0.000087 -41.133200  -0.000135
                CHANNELS 3 Zrotation Xrotation Yrotation
                JOINT LeftToe
                {
                    OFFSET   0.000000  -6.358960  14.674500
                    CHANNELS 3 Zrotation Xrotation Yrotation
                    End Site
                    {
                        OFFSET   0.000000   0.000000   3.913200
                    }
                }
            }
        }
    }
    JOINT RightHip
    {
        OFFSET  -9.783040   0.000000   0.000000
        CHANNELS 3 Zrotation Xrotation Yrotation
        JOINT RightKnee
        {
            OFFSET   0.000047 -41.789100  -0.000896
            CHANNELS 3 Zrotation Xrotation Yrotation
            JOINT RightAnkle
            {
                OFFSET  -0.000117 -41.133300  -0.000248
                CHANNELS 3 Zrotation Xrotation Yrotation
                JOINT RightToe
                {
                    OFFSET   0.000000  -6.358970  14.674500
                    CHANNELS 3 Zrotation Xrotation Yrotation
                    End Site
                    {
                        OFFSET   0.000000   0.000000   3.913200
                    }
                }
            }
        }
    }
}
MOTION
Frames: 5
Frame Time:   0.016667
  5.782260  88.565700   0.697250  -1.757350 -17.418700  -4.797860   0.686595  10.222000   0.210896   1.367770  20.445800   0.302349  -7.480720  -3.670360  -0.480167 -12.421400  -7.063640  11.145200  -2.234880  -3.020360   3.036050 -29.037200  58.311500 -17.843200   2.977620  27.968000 -68.452800  76.159800 -17.248900 -22.741900  70.389000  47.515100 -98.659500  21.520100  -0.001369   0.006759  15.000300  -0.004231  -0.004099 -17.765700   0.147566  -0.459943 -14.536000  -0.001106  -0.010500 -10.175200   0.002779   0.002497 -22.046200   0.181235  -0.447648 -22.046900  -0.002029   0.000303 -14.683200  -0.001360  -0.012173 -23.498700   0.192619  -0.442840 -23.499300  -0.001585  -0.008616 -15.650600   0.000172  -0.003082 -22.301300  -2.244680   5.454920 -33.612400   0.002964  -0.001497 -22.385800   0.008232  -0.010919  -0.516855  -2.852860   6.377360  66.529800  51.827400 -19.989200  -7.389670  19.273700  69.636200 -94.728800  -7.575370  29.522300 -70.281500  50.304800 106.221000 -20.343800   0.000597   0.000077 -14.998000  -0.008283  -0.013862  21.382000   4.275170  10.779600  17.824500  -0.003703   0.001450  12.477200  -0.002349   0.002483  22.837100   3.282620   7.742630  23.059300  -0.004044   0.003612  15.357500   0.002187   0.002992  21.912900   3.156680   7.794600  22.127900  -0.000506  -0.000300  14.737200  -0.000776  -0.000069  20.733800  -1.692290  -4.461080  31.199600  -0.002449   0.001148  20.778900   0.006385   0.001323  -1.392980  20.493500   5.957260  -0.361025   0.286738  10.834600  -1.202280  -4.444360   7.556390   0.000000   0.000000   0.000000  -4.142740   5.160930  -1.227230  -1.600940  23.808300  -4.508240   2.873800 -11.347800   0.132007  -0.000000   0.000000  -0.000000
  5.705890  88.582100   0.728408  -1.809670 -17.301100  -4.705130   0.719436  10.172200   0.218365   1.433560  20.346500   0.312069  -7.445120  -3.676840  -0.479447 -12.362900  -7.079650  11.128100  -2.160300  -2.962730   3.041780 -28.826800  58.312200 -18.136800   2.969080  27.965800 -68.452900  76.093900 -17.188600 -22.753200  70.395000  47.480400 -98.558800  21.536300  -0.001381   0.006751  15.000300  -0.004257  -0.004113 -17.950300   0.109984  -0.339883 -14.686800  -0.001127  -0.010564 -10.280700   0.002818   0.002538 -22.077100   0.133883  -0.330994 -22.078000  -0.002027   0.000243 -14.702500  -0.001346  -0.012251 -23.574400   0.142455  -0.327025 -23.574800  -0.001570  -0.008753 -15.700800   0.000215  -0.003136 -22.366200  -2.258580   5.470760 -33.711000   0.003040  -0.001534 -22.451500   0.008373  -0.011057  -0.443775  -2.905000   6.404710  66.655100  51.790300 -20.332700  -7.322940  19.094900  69.787500 -94.519900  -7.505480  29.648600 -69.995100  50.287500 106.026000 -20.315400   0.000635   0.000032 -14.998000  -0.008290  -0.013926  21.635300   4.324550  10.764500  18.035100  -0.003748   0.001473  12.624600  -0.002360   0.002447  23.033200   3.301690   7.714850  23.255900  -0.004146   0.003661  15.488400   0.002182   0.003061  22.094000   3.172750   7.767920  22.309300  -0.000538  -0.000279  14.858000  -0.000720  -0.000065  20.914800  -1.713080  -4.472380  31.472500  -0.002509   0.001178  20.960600   0.006458   0.001364  -1.242800  20.410800   5.945590  -0.360220   0.260192  10.774900  -1.263290  -4.416660   7.485920  -0.000000   0.000000   0.000000  -4.003830   5.184210  -1.269830  -1.591290  23.627900  -4.575690   2.823550 -11.292700   0.091962   0.000000   0.000000   0.000000
  5.626510  88.601100   0.762502  -1.863260 -17.176900  -4.612510   0.754265  10.118200   0.227397   1.503080  20.238600   0.324738  -7.403520  -3.683410  -0.478290 -12.294500  -7.096380  11.100700  -2.088000  -2.865600   3.043140 -28.721400  58.316500 -18.309600   2.955300  27.950800 -68.453700  75.993900 -17.103000 -22.795600  70.400700  47.465600 -98.517200  21.543600  -0.001389   0.006741  15.000200  -0.004277  -0.004127 -18.076000   0.087617  -0.268219 -14.789600  -0.001146  -0.010624 -10.352700   0.002856   0.002577 -22.118600   0.106245  -0.261324 -22.118900  -0.002022   0.000183 -14.731200  -0.001331  -0.012328 -23.688400   0.113434  -0.259039 -23.688800  -0.001553  -0.008894 -15.776700   0.000255  -0.003188 -22.500100  -2.277570   5.479070 -33.913900   0.003118  -0.001639 -22.586700   0.008518  -0.011194  -0.331344  -2.993670   6.438770  66.721400  51.772600 -20.709700  -7.277690  18.941600  69.961100 -94.271900  -7.423440  29.780700 -69.670300  50.300700 105.871000 -20.273900   0.000678   0.000000 -14.998000  -0.008300  -0.013993  21.893600   4.377660  10.755500  18.250200  -0.003795   0.001496  12.775100  -0.002370   0.002414  23.231000   3.320880   7.686840  23.454100  -0.004249   0.003709  15.620400   0.002177   0.003132  22.291500   3.193760   7.740190  22.507600  -0.000572  -0.000254  14.990100  -0.000663  -0.000062  21.125200  -1.738530  -4.488120  31.789900  -0.002570   0.001209  21.172100   0.006534   0.001411  -1.089360  20.325800   5.927890  -0.357032   0.220130  10.744700  -1.330860  -4.382910   7.404530  -0.000000   0.000000   0.000000  -3.859760   5.216030  -1.317050  -1.584390  23.425200  -4.636230   2.774120 -11.227300   0.048326  -0.000000   0.000000   0.000000
  5.545280  88.623500   0.794477  -1.913570 -17.031900  -4.525870   0.790352  10.060900   0.245341   1.572550  20.124200   0.358186  -7.352600  -3.692440  -0.476025 -12.210800  -7.118740  11.029100  -2.038640  -2.731550   2.986650 -28.722000  58.293800 -18.297200   2.972630  27.840000 -68.475200  75.808500 -16.958000 -22.891600  70.286800  47.474800 -98.520500  21.518300  -0.001389   0.006731  15.000200  -0.004291  -0.004142 -18.130300   0.083695  -0.252622 -14.834200  -0.001157  -0.010668 -10.384000   0.002882   0.002610 -22.139500   0.100869  -0.246504 -22.140100  -0.002004   0.000121 -14.745300  -0.001317  -0.012405 -23.831700   0.108530  -0.245389 -23.833500  -0.001521  -0.009023 -15.873100   0.000289  -0.003256 -22.719800  -2.314480   5.474780 -34.246900   0.003211  -0.005500 -22.808500   0.008673  -0.011265  -0.157654  -3.153490   6.500850  66.805500  51.756900 -21.240800  -7.260000  18.758700  70.182600 -93.934400  -7.337450  29.948300 -69.268900  50.341700 105.690000 -20.221200   0.000741   0.000000 -15.010000  -0.008308  -0.014088  22.124300   4.415370  10.736200  18.441600  -0.003833   0.001506  12.909100  -0.002387   0.002393  23.399100   3.326460   7.640210  23.621500  -0.004350   0.003757  15.731900   0.002170   0.003194  22.463000   3.200130   7.692860  22.678300  -0.000604  -0.000231  15.103800  -0.000605  -0.000028  21.317300  -1.777930  -4.526940  32.081100  -0.002648   0.001244  21.366000   0.006620   0.001459  -0.942422  20.210000   5.912850  -0.349462   0.192806  10.744400  -1.397010  -4.347840   7.300790  -0.000000   0.000000   0.000000  -3.713710   5.234530  -1.366340  -1.582210  23.203100  -4.693540   2.729950 -11.156100   0.008745   0.000000   0.000000  -0.000000
  5.463270  88.649200   0.828028  -1.965170 -16.879200  -4.438300   0.826917  10.000700   0.261683   1.645180  20.004200   0.383103  -7.287100  -3.704830  -0.473068 -12.103100  -7.149020  10.943900  -2.024820  -2.564600   2.845870 -28.759100  58.135200 -18.210800   3.041290  27.691800 -68.544400  75.503900 -16.663500 -23.119600  70.057300  47.511500 -98.535000  21.472000  -0.001388   0.006718  15.000200  -0.004305  -0.004158 -18.160600   0.081083  -0.243750 -14.859800  -0.001167  -0.010708 -10.401900   0.002911   0.002645 -22.158100   0.097790  -0.237793 -22.159600  -0.001981   0.000065 -14.758300  -0.001301  -0.012486 -24.047700   0.104895  -0.237584 -24.049300  -0.001486  -0.009154 -16.016800   0.000323  -0.003298 -23.108400  -2.339640   5.443800 -34.834700   0.003307  -0.012142 -23.199900   0.008830  -0.011482   0.051659  -3.324680   6.575610  66.860200  51.704600 -21.807600  -7.209370  18.598000  70.404200 -93.443700  -7.213190  30.182200 -68.851900  50.366200 105.584000 -20.151800   0.000802   0.000000 -15.021900  -0.008313  -0.014190  22.307600   4.457990  10.724200  18.593900  -0.003870   0.001516  13.015700  -0.002403   0.002371  23.532700   3.336700   7.610220  23.754400  -0.004455   0.003813  15.820400   0.002163   0.003255  22.622900   3.214180   7.662190  22.837900  -0.000635  -0.000210  15.210100  -0.000546   0.000000  21.544200  -1.803440  -4.554120  32.423800  -0.002730   0.001284  21.594200   0.006712   0.001507  -0.793295  20.078600   5.893560  -0.338367   0.178964  10.744300  -1.467240  -4.317910   7.186040   0.000000   0.000000  -0.000000  -3.566740   5.258680  -1.422770  -1.582530  22.956600  -4.746150   2.687570 -11.073600  -0.029404   0.000000   0.000000  -0.000000
